<?xml version="1.0" standalone="no"?>
<!DOCTYPE svg PUBLIC "-//W3C//DTD SVG 20010904//EN"
 "http://www.w3.org/TR/2001/REC-SVG-20010904/DTD/svg10.dtd">
<svg version="1.0" xmlns="http://www.w3.org/2000/svg"
 width="512.000000pt" height="512.000000pt" viewBox="0 0 512.000000 512.000000"
 preserveAspectRatio="xMidYMid meet">
<metadata>
Created by potrace 1.16, written by Peter Selinger 2001-2019
</metadata>
<g transform="translate(0.000000,512.000000) scale(0.100000,-0.100000)"
fill="#000000" stroke="none">
<path d="M3000 4734 c-85 -22 -231 -99 -291 -154 l-54 -50 70 46 c87 58 188
109 285 145 81 30 77 36 -10 13z"/>
<path d="M3084 4689 c-143 -24 -332 -121 -450 -231 -99 -93 -211 -268 -249
-389 -18 -56 -18 -58 2 -90 l19 -34 -23 -51 c-40 -88 -64 -201 -70 -335 -4
-76 -2 -133 4 -143 7 -13 12 13 16 96 7 115 31 245 67 353 11 33 24 98 30 144
11 96 40 165 104 255 170 238 491 394 731 356 255 -40 373 -235 376 -625 l1
-160 15 55 c23 83 22 305 -1 405 -70 304 -273 444 -572 394z"/>
<path d="M2933 4505 c-173 -78 -370 -260 -445 -410 -14 -27 -29 -75 -33 -105
-3 -30 -19 -96 -35 -145 -49 -157 -63 -254 -56 -400 3 -71 8 -149 12 -173 6
-41 5 -43 -29 -57 -20 -8 -58 -28 -85 -44 -59 -35 -53 -42 -73 104 -21 158 -1
381 52 571 50 184 193 460 295 573 20 23 34 44 31 48 -11 10 -56 -26 -174
-140 -235 -227 -356 -420 -409 -652 -40 -171 -18 -454 49 -637 l22 -59 -85
-87 c-96 -98 -218 -256 -279 -361 -143 -243 -191 -550 -126 -801 69 -269 284
-509 547 -610 40 -15 99 -34 131 -41 69 -15 69 -5 2 -174 -83 -211 -99 -334
-54 -421 30 -58 84 -103 139 -115 118 -27 230 81 230 221 0 22 8 38 25 52 57
45 17 118 -65 118 -94 0 -110 -72 -27 -123 22 -14 27 -25 27 -58 0 -82 -49
-139 -120 -139 -50 0 -88 29 -118 90 -51 104 -29 281 67 534 22 60 41 116 41
123 0 7 -10 13 -23 13 -36 0 -163 38 -232 69 -182 83 -354 248 -444 428 -58
117 -76 201 -75 363 1 127 4 156 27 233 15 48 46 125 68 170 48 96 175 267
286 385 l78 84 34 -79 c19 -43 58 -117 88 -165 29 -48 53 -90 53 -92 0 -3 -12
-18 -26 -33 -36 -38 -135 -169 -163 -216 -74 -122 -105 -230 -105 -372 0 -233
108 -402 311 -484 26 -11 41 -20 33 -20 -8 -1 -56 19 -107 44 -114 56 -191
128 -245 230 -55 106 -72 175 -71 285 3 206 68 349 279 607 31 38 31 38 14 70
l-17 32 -56 -63 c-128 -145 -211 -286 -259 -436 -19 -63 -23 -97 -23 -205 0
-144 8 -179 74 -315 86 -178 274 -303 478 -317 60 -4 83 -10 83 -19 0 -18 -48
-18 -143 0 -239 46 -406 193 -488 428 -31 88 -41 70 -13 -23 53 -179 171 -318
339 -399 78 -37 201 -70 266 -70 l32 0 -6 -45 c-4 -24 -23 -86 -42 -137 -85
-219 -122 -419 -96 -516 7 -23 25 -57 42 -75 l29 -32 -22 50 c-32 72 -32 236
0 354 39 142 30 135 163 132 78 -1 133 3 173 14 32 8 60 14 61 13 2 -2 -1 -32
-6 -68 -6 -45 -15 -70 -29 -82 -23 -19 -141 -48 -194 -48 -19 0 -38 -5 -42
-11 -8 -14 113 -3 187 16 27 7 49 10 49 6 0 -4 -18 -33 -41 -64 -22 -32 -36
-57 -31 -57 14 0 78 73 98 112 9 18 36 50 60 71 56 50 82 106 90 197 l6 75 93
95 c111 113 162 185 207 288 31 73 32 83 33 202 0 95 -4 138 -18 180 -40 117
-138 204 -245 217 -40 4 -60 1 -104 -20 -92 -41 -139 -122 -137 -234 l1 -68
13 71 c19 104 56 163 130 202 39 21 132 19 176 -3 48 -25 99 -64 99 -77 0 -6
-9 -3 -20 7 -28 25 -38 10 -12 -18 50 -53 69 -156 53 -285 -13 -101 -59 -207
-131 -297 -49 -62 -139 -145 -156 -145 -8 0 -68 201 -62 204 2 1 28 18 58 38
112 75 179 167 188 258 11 114 -99 196 -196 146 -57 -29 -75 -117 -34 -159
l23 -22 -12 33 c-21 59 11 122 62 122 41 0 58 -9 74 -41 25 -48 19 -127 -15
-185 -30 -53 -137 -157 -155 -151 -5 2 -41 100 -78 218 -62 192 -194 597 -204
625 -2 6 60 64 139 130 341 283 616 552 731 711 75 106 149 247 182 353 33
102 45 285 26 396 -24 140 -105 253 -209 289 -62 21 -168 30 -212 17 -32 -9
-30 -10 35 -12 266 -5 375 -209 293 -548 -80 -332 -282 -597 -793 -1042 -265
-231 -265 -231 -265 -273 0 -19 7 -50 15 -69 35 -86 195 -793 195 -867 0 -54
-267 -34 -393 29 -110 55 -210 177 -242 294 -35 130 -1 315 82 449 53 85 198
275 208 273 13 -3 43 -64 51 -104 5 -26 3 -32 -10 -32 -21 0 -128 -100 -167
-156 -180 -261 -53 -644 222 -669 l54 -5 -45 13 c-167 48 -270 173 -270 327 0
76 29 152 87 232 49 66 155 178 170 178 4 0 25 -67 46 -148 41 -158 57 -198
57 -147 0 85 -50 302 -79 345 -10 14 -35 73 -55 132 l-38 106 28 36 28 35 36
-64 c38 -70 51 -81 48 -37 -1 15 6 39 16 55 10 15 13 27 8 27 -6 0 -16 -9 -22
-20 -6 -11 -14 -20 -19 -20 -12 0 -34 55 -29 73 1 8 102 125 224 259 281 309
325 361 414 483 208 287 247 555 104 714 -82 91 -183 104 -291 39 -72 -43
-202 -179 -264 -276 -62 -98 -65 -120 -2 -27 55 83 137 166 215 218 129 85
226 89 297 13 l24 -26 -64 6 c-164 16 -346 -89 -463 -265 -55 -82 -80 -145
-102 -252 -22 -110 -15 -289 15 -374 11 -33 18 -49 16 -35 -3 14 -8 49 -12 78
-5 47 -3 55 16 68 29 21 27 36 -6 28 l-26 -7 6 74 c12 167 74 313 177 423 116
124 247 186 361 173 100 -12 115 -41 84 -161 -44 -169 -154 -343 -387 -613
-279 -323 -394 -447 -407 -438 -23 14 -8 37 70 114 l81 80 -25 53 c-48 100
-61 171 -61 333 -1 161 8 219 65 404 22 71 29 113 29 175 0 104 20 147 129
277 88 105 183 184 291 241 79 42 75 50 -7 13z m-684 -499 c-35 -76 -84 -262
-99 -378 -19 -151 -10 -318 25 -450 l13 -53 -31 -26 c-18 -15 -33 -26 -34 -25
-1 1 -14 44 -27 95 -83 309 -37 596 135 841 23 33 43 60 45 60 2 0 -10 -29
-27 -64z m145 -873 c10 -32 29 -80 43 -106 25 -50 25 -69 -1 -48 -11 9 -24 0
-68 -45 l-54 -56 -41 89 c-62 134 -63 121 20 175 39 26 75 47 78 47 3 1 13
-25 23 -56z m-165 -138 c18 -41 55 -113 82 -160 27 -47 49 -90 49 -96 0 -6
-10 -24 -21 -41 l-21 -29 -24 34 c-30 44 -106 196 -134 267 l-21 53 22 23 c13
13 25 24 29 24 3 0 21 -34 39 -75z m66 -688 c-34 -34 -77 -88 -95 -120 -37
-66 -47 -74 -25 -19 24 55 63 108 118 158 73 65 75 53 2 -19z m437 -667 c30
-80 58 -176 82 -278 l14 -62 -28 -15 c-26 -14 -29 -13 -34 3 -19 63 -97 450
-96 477 1 17 32 -46 62 -125z m-385 -176 c-3 -3 -12 -4 -19 -1 -8 3 -5 6 6 6
11 1 17 -2 13 -5z m50 -10 c-3 -3 -12 -4 -19 -1 -8 3 -5 6 6 6 11 1 17 -2 13
-5z m310 -106 c11 -57 17 -107 13 -111 -13 -14 -113 -37 -194 -43 l-79 -7 6
24 c3 13 9 43 13 67 5 32 12 43 28 46 11 2 48 10 81 17 55 12 58 13 30 20 -16
3 -54 7 -82 8 -77 2 -70 24 11 39 35 7 79 19 98 27 18 8 38 14 43 15 6 0 20
-46 32 -102z m83 -323 c-6 -31 -13 -55 -14 -53 -2 2 -1 31 2 66 3 41 8 60 14
54 6 -6 6 -30 -2 -67z m-206 -307 c22 -36 -51 -77 -82 -46 -16 16 -15 55 1 62
24 10 70 1 81 -16z"/>
<path d="M3228 4145 c95 -104 139 -225 128 -354 l-5 -66 15 45 c25 73 29 189
10 246 -26 80 -100 155 -176 179 -20 6 -15 -2 28 -50z"/>
<path d="M1915 3179 c-140 -44 -359 -192 -438 -296 -22 -29 -60 -69 -86 -87
-105 -78 -217 -224 -291 -381 -69 -144 -84 -212 -84 -380 0 -136 6 -180 50
-333 6 -21 5 -22 -20 -12 -36 13 -42 13 -60 -6 -36 -35 -6 -94 48 -94 19 0 30
7 38 25 11 24 13 21 55 -67 39 -82 119 -218 129 -218 2 0 -25 56 -60 123 -113
224 -152 386 -143 597 12 277 120 485 383 740 160 154 294 245 497 334 55 24
65 37 49 62 -5 9 -23 7 -67 -7z m-867 -1511 c20 -20 14 -40 -10 -36 -15 2 -24
11 -26 26 -4 24 16 30 36 10z"/>
<path d="M3376 3132 c5 -5 52 -45 105 -90 147 -126 274 -274 330 -383 39 -78
77 -213 94 -329 l13 -95 1 81 c3 203 -108 456 -268 614 -57 57 -261 210 -279
210 -3 0 -2 -4 4 -8z"/>
<path d="M1908 3046 c-99 -44 -219 -122 -333 -218 -100 -84 -185 -182 -225
-258 -16 -31 -7 -22 57 60 117 148 240 239 431 316 69 27 101 45 91 49 -9 3
-38 -3 -65 -13 -85 -33 -91 -34 -34 -3 30 16 83 40 118 51 35 12 61 27 59 33
-6 19 -21 17 -99 -17z"/>
<path d="M3265 3049 c-37 -45 -21 -50 23 -6 26 26 32 37 20 37 -9 0 -28 -14
-43 -31z"/>
<path d="M1311 3022 c-13 -25 5 -52 34 -52 29 0 39 14 31 46 -8 29 -50 34 -65
6z"/>
<path d="M3730 3011 c-19 -36 17 -74 46 -50 19 16 18 55 -2 63 -25 10 -33 7
-44 -13z"/>
<path d="M3510 2966 c0 -18 17 -29 30 -21 8 5 7 11 -1 21 -15 18 -29 18 -29 0z"/>
<path d="M1420 2925 c-16 -20 -6 -45 19 -45 26 0 34 15 21 40 -13 24 -23 25
-40 5z"/>
<path d="M3075 2834 c-44 -41 -65 -65 -46 -53 44 29 149 128 136 129 -6 0 -46
-34 -90 -76z"/>
<path d="M1162 2883 c2 -10 10 -18 18 -18 8 0 16 8 18 18 2 12 -3 17 -18 17
-15 0 -20 -5 -18 -17z"/>
<path d="M1293 2815 c-3 -9 -3 -18 0 -21 9 -9 27 6 27 22 0 19 -19 18 -27 -1z"/>
<path d="M3690 2806 c0 -14 73 -136 78 -131 2 2 -8 26 -23 52 -37 64 -55 89
-55 79z"/>
<path d="M3521 2742 c192 -223 329 -530 329 -736 0 -42 -10 -72 -54 -161 -30
-61 -52 -112 -50 -114 8 -8 35 34 77 119 41 83 42 87 41 185 0 88 -4 113 -36
205 -77 224 -172 384 -304 510 l-58 55 55 -63z"/>
<path d="M1953 2657 c-41 -61 -94 -162 -76 -142 18 19 125 196 121 200 -2 2
-22 -24 -45 -58z"/>
<path d="M1153 2703 c-20 -8 -16 -43 5 -43 25 0 31 7 25 31 -5 20 -9 21 -30
12z"/>
<path d="M2892 2674 c-48 -33 -18 -62 93 -88 110 -27 205 -79 280 -153 106
-107 149 -219 162 -428 6 -104 -11 -228 -43 -304 -23 -54 -9 -47 30 16 56 89
71 149 71 288 0 188 -46 295 -185 436 -89 90 -170 143 -276 179 -32 11 -70 32
-84 45 -24 23 -27 24 -48 9z"/>
<path d="M1301 2575 c-89 -147 -132 -314 -139 -542 -6 -215 20 -368 95 -548
108 -261 398 -507 688 -585 71 -19 268 -40 255 -28 -3 3 -56 20 -118 37 -146
41 -249 85 -343 145 -195 127 -393 336 -469 497 -102 219 -120 568 -40 825 25
82 68 183 92 217 11 16 18 30 16 32 -2 3 -19 -20 -37 -50z"/>
<path d="M3922 2577 c-8 -10 -7 -27 4 -68 21 -77 29 -250 15 -334 -17 -103
-17 -107 -5 -112 6 -2 15 6 19 19 11 39 18 330 8 384 -7 34 -6 55 1 67 19 30
-20 71 -42 44z"/>
<path d="M1536 2518 c-49 -85 -105 -215 -127 -298 -31 -115 -31 -289 0 -405
23 -86 124 -301 166 -350 16 -20 6 7 -29 75 -97 189 -132 342 -123 538 6 139
35 250 102 390 47 98 52 119 11 50z"/>
<path d="M3736 2545 c-20 -20 -20 -29 0 -49 17 -18 32 -20 52 -7 19 12 11 41
-14 58 -19 12 -24 12 -38 -2z"/>
<path d="M2845 2543 c-111 -15 -299 -102 -282 -131 5 -6 31 2 74 24 81 40 141
54 236 54 91 -1 145 -13 227 -53 74 -36 204 -157 239 -222 19 -36 20 -37 15
-10 -12 56 -64 153 -110 204 -90 100 -250 154 -399 134z"/>
<path d="M3625 2481 c42 -83 74 -193 85 -292 13 -107 4 -252 -14 -246 -6 2
-22 46 -36 98 -29 106 -39 134 -45 128 -2 -2 5 -35 15 -72 26 -92 44 -256 37
-336 -7 -93 -49 -190 -125 -290 -61 -81 -61 -88 0 -32 36 32 42 24 22 -25 -53
-128 -235 -332 -364 -407 -83 -48 -197 -92 -302 -116 -100 -23 -69 -26 63 -6
143 21 235 59 354 147 l40 30 -35 -32 c-126 -114 -291 -206 -485 -271 -84 -29
-95 -34 -67 -37 47 -5 185 25 275 60 43 16 113 53 155 81 89 59 265 230 341
332 57 77 162 283 181 358 11 43 11 49 -5 60 -15 12 -13 13 17 9 24 -3 38 2
52 16 24 28 14 55 -30 75 -24 12 -34 22 -30 32 3 8 13 54 22 102 21 111 14
284 -15 398 -19 73 -113 285 -126 285 -3 0 6 -22 20 -49z m117 -796 c0 -14
-29 -31 -38 -22 -9 8 16 39 28 35 5 -2 10 -8 10 -13z"/>
<path d="M3342 2469 c3 -8 35 -58 71 -112 100 -149 138 -270 139 -438 0 -306
-166 -534 -506 -689 -53 -25 -96 -48 -96 -52 0 -15 164 53 236 97 145 91 240
188 318 325 44 77 38 42 -8 -45 -70 -135 -253 -288 -479 -401 -64 -33 -107
-60 -104 -67 6 -18 32 -10 130 39 214 106 395 279 488 469 62 127 82 204 82
325 -1 161 -50 309 -145 435 -45 59 -137 143 -126 114z"/>
<path d="M3550 2381 c0 -15 6 -21 21 -21 25 0 22 33 -4 38 -12 2 -17 -3 -17
-17z"/>
<path d="M1527 2362 c-15 -16 -15 -21 -4 -30 10 -9 18 -8 33 3 17 12 18 15 3
30 -14 14 -17 14 -32 -3z"/>
<path d="M1527 2286 c-119 -110 -94 -425 56 -708 48 -91 61 -99 17 -11 -16 34
-42 101 -57 149 -25 82 -27 102 -27 259 1 140 4 184 22 250 11 44 19 81 18 83
-2 1 -14 -9 -29 -22z"/>
<path d="M934 2255 c-8 -21 2 -45 19 -45 8 0 20 7 27 15 10 12 10 18 0 30 -7
8 -19 15 -27 15 -7 0 -16 -7 -19 -15z"/>
<path d="M4024 2256 c-7 -18 1 -46 13 -46 4 0 15 5 23 10 11 7 12 14 4 27 -15
24 -33 28 -40 9z"/>
<path d="M1230 2173 c-9 -59 -10 -128 -5 -208 4 -66 8 -158 9 -205 4 -145 75
-277 241 -446 174 -177 333 -284 513 -344 106 -35 149 -36 51 -1 -237 86 -473
274 -606 484 -48 75 -113 216 -142 306 -43 131 -54 221 -49 371 3 71 4 130 2
130 -1 0 -8 -39 -14 -87z"/>
<path d="M3963 2055 c-49 -21 -59 -77 -20 -113 31 -29 53 -28 88 7 32 33 36
56 14 88 -19 27 -46 33 -82 18z m52 -24 c8 -14 -37 -43 -49 -31 -6 6 -4 15 4
25 14 17 36 20 45 6z"/>
<path d="M3896 2051 c-4 -7 -5 -15 -2 -18 9 -9 19 4 14 18 -4 11 -6 11 -12 0z"/>
<path d="M801 1996 c-19 -23 -9 -67 21 -89 36 -27 78 -15 92 26 8 22 6 31 -14
52 -27 28 -80 34 -99 11z m87 -29 c2 -12 -3 -17 -17 -17 -12 0 -21 6 -21 13 0
31 32 34 38 4z"/>
<path d="M1782 1920 c0 -14 2 -19 5 -12 2 6 2 18 0 25 -3 6 -5 1 -5 -13z"/>
<path d="M962 1848 c2 -15 10 -23 23 -23 30 0 27 39 -3 43 -20 3 -23 0 -20
-20z"/>
<path d="M3101 1697 c-28 -46 -117 -129 -180 -167 -59 -37 -62 -51 -4 -22 99
51 213 163 213 209 0 20 -7 16 -29 -20z"/>
<path d="M3615 1720 c-7 -12 2 -30 16 -30 5 0 9 9 9 20 0 21 -15 27 -25 10z"/>
<path d="M3467 1675 c-10 -28 -33 -74 -51 -102 -50 -76 -52 -80 -27 -58 27 24
105 178 99 197 -3 7 -12 -10 -21 -37z"/>
<path d="M4005 1708 c-28 -15 -55 -50 -55 -70 0 -24 35 -58 61 -58 29 0 79 53
79 84 0 14 -9 31 -22 40 -26 19 -36 19 -63 4z m62 -23 c8 -21 -25 -55 -54 -55
-17 0 -23 6 -23 23 0 13 5 28 12 35 17 17 58 15 65 -3z"/>
<path d="M3860 1480 c0 -5 5 -10 10 -10 6 0 10 5 10 10 0 6 -4 10 -10 10 -5 0
-10 -4 -10 -10z"/>
<path d="M965 1445 c-35 -34 -32 -70 9 -111 43 -43 94 -47 131 -9 29 28 31 45
11 84 -33 62 -108 80 -151 36z m106 -14 c26 -21 21 -43 -14 -65 -25 -16 -62
24 -53 58 8 31 34 34 67 7z"/>
<path d="M3910 1435 c-15 -18 -6 -45 13 -45 20 0 40 27 33 45 -7 19 -30 19
-46 0z"/>
<path d="M1307 1254 c-26 -27 27 -114 70 -114 10 0 45 -23 78 -52 81 -69 235
-170 326 -212 123 -57 131 -51 14 11 -204 108 -349 220 -420 324 -30 42 -53
57 -68 43z m57 -56 c9 -12 13 -24 11 -27 -6 -5 -45 29 -45 41 0 15 19 8 34
-14z"/>
<path d="M3681 1205 c-45 -51 -38 -66 9 -20 22 21 40 43 40 47 0 17 -19 6 -49
-27z"/>
<path d="M3732 1188 c-28 -28 -7 -78 33 -78 27 0 45 18 45 45 0 27 -18 45 -45
45 -12 0 -26 -5 -33 -12z m43 -7 c3 -5 1 -12 -5 -16 -5 -3 -10 1 -10 9 0 18 6
21 15 7z"/>
<path d="M3563 1049 c-138 -131 -372 -292 -548 -375 -49 -24 -87 -43 -83 -44
14 -1 156 54 213 83 159 79 407 271 476 369 36 50 17 39 -58 -33z"/>
<path d="M1177 1076 c-15 -39 32 -71 61 -42 13 13 14 20 6 34 -15 23 -60 28
-67 8z m48 -6 c3 -5 1 -10 -4 -10 -6 0 -11 5 -11 10 0 6 2 10 4 10 3 0 8 -4
11 -10z"/>
<path d="M1550 915 c49 -61 206 -130 363 -160 122 -23 144 -16 32 10 -96 22
-211 58 -247 77 -10 5 -18 20 -18 34 0 31 -25 42 -48 20 -17 -14 -21 -13 -58
11 -27 18 -34 21 -24 8z"/>
<path d="M3238 749 c-22 -12 -23 -52 -2 -73 19 -20 34 -20 62 0 55 38 -1 108
-60 73z"/>
</g>
</svg>